<svg width="33" height="33" viewBox="0 0 33 33" fill="none" xmlns="http://www.w3.org/2000/svg">
<path d="M23.4161 11.6683V10.972C23.4161 7.83705 18.6874 5.47205 12.4161 5.47205C6.14489 5.47205 1.41614 7.83705 1.41614 10.972V15.972C1.41614 18.5833 4.69739 20.6583 9.41614 21.2795V21.972C9.41614 25.107 14.1449 27.472 20.4161 27.472C26.6874 27.472 31.4161 25.107 31.4161 21.972V16.972C31.4161 14.3845 28.2386 12.307 23.4161 11.6683ZM29.4161 16.972C29.4161 18.6245 25.5674 20.472 20.4161 20.472C19.9499 20.472 19.4874 20.4558 19.0311 20.4258C21.7274 19.4433 23.4161 17.847 23.4161 15.972V13.6895C27.1499 14.2458 29.4161 15.7558 29.4161 16.972ZM9.41614 19.2533V16.2795C10.4109 16.4092 11.413 16.4735 12.4161 16.472C13.4193 16.4735 14.4214 16.4092 15.4161 16.2795V19.2533C14.4229 19.4 13.4202 19.4731 12.4161 19.472C11.4121 19.4731 10.4094 19.4 9.41614 19.2533ZM21.4161 14.2133V15.972C21.4161 17.0208 19.8649 18.147 17.4161 18.8308V15.9095C19.0299 15.5183 20.3961 14.9358 21.4161 14.2133ZM12.4161 7.47205C17.5674 7.47205 21.4161 9.31955 21.4161 10.972C21.4161 12.6245 17.5674 14.472 12.4161 14.472C7.26489 14.472 3.41614 12.6245 3.41614 10.972C3.41614 9.31955 7.26489 7.47205 12.4161 7.47205ZM3.41614 15.972V14.2133C4.43614 14.9358 5.80239 15.5183 7.41614 15.9095V18.8308C4.96739 18.147 3.41614 17.0208 3.41614 15.972ZM11.4161 21.972V21.4508C11.7449 21.4633 12.0774 21.472 12.4161 21.472C12.9011 21.472 13.3749 21.4558 13.8399 21.4283C14.3565 21.6132 14.8826 21.7701 15.4161 21.8983V24.8308C12.9674 24.147 11.4161 23.0208 11.4161 21.972ZM17.4161 25.2533V22.272C18.4105 22.4057 19.4128 22.4725 20.4161 22.472C21.4193 22.4735 22.4214 22.4092 23.4161 22.2795V25.2533C21.4268 25.545 19.4055 25.545 17.4161 25.2533ZM25.4161 24.8308V21.9095C27.0299 21.5183 28.3961 20.9358 29.4161 20.2133V21.972C29.4161 23.0208 27.8649 24.147 25.4161 24.8308Z" fill="black"/>
</svg>
