<svg width="230" height="230" viewBox="0 0 230 230" fill="none" xmlns="http://www.w3.org/2000/svg">
<path d="M194.062 35.9375H64.6875C60.875 35.9375 57.2187 37.452 54.5228 40.1478C51.827 42.8437 50.3125 46.5 50.3125 50.3125V64.6875H35.9375C32.125 64.6875 28.4687 66.202 25.7728 68.8978C23.077 71.5937 21.5625 75.25 21.5625 79.0625V179.688C21.5625 183.5 23.077 187.156 25.7728 189.852C28.4687 192.548 32.125 194.062 35.9375 194.062H165.312C169.125 194.062 172.781 192.548 175.477 189.852C178.173 187.156 179.688 183.5 179.688 179.688V165.312H194.062C197.875 165.312 201.531 163.798 204.227 161.102C206.923 158.406 208.438 154.75 208.438 150.938V50.3125C208.438 46.5 206.923 42.8437 204.227 40.1478C201.531 37.452 197.875 35.9375 194.062 35.9375ZM64.6875 50.3125H194.062V106.689L185.015 97.6512C183.68 96.316 182.096 95.2568 180.351 94.5342C178.607 93.8116 176.737 93.4397 174.849 93.4397C172.961 93.4397 171.092 93.8116 169.348 94.5342C167.603 95.2568 166.018 96.316 164.684 97.6512L146.715 115.62L107.184 76.0887C104.488 73.3949 100.833 71.8817 97.0223 71.8817C93.2114 71.8817 89.5565 73.3949 86.8609 76.0887L64.6875 98.2621V50.3125ZM165.312 179.688H35.9375V79.0625H50.3125V150.938C50.3125 154.75 51.827 158.406 54.5228 161.102C57.2187 163.798 60.875 165.312 64.6875 165.312H165.312V179.688ZM194.062 150.938H64.6875V118.594L97.0312 86.25L141.648 130.866C142.995 132.213 144.823 132.97 146.728 132.97C148.634 132.97 150.461 132.213 151.809 130.866L174.863 107.812L194.062 127.021V150.938ZM143.75 75.4688C143.75 73.3364 144.382 71.252 145.567 69.479C146.752 67.706 148.435 66.3242 150.405 65.5082C152.375 64.6922 154.543 64.4787 156.635 64.8947C158.726 65.3107 160.647 66.3375 162.155 67.8453C163.663 69.353 164.689 71.2741 165.105 73.3654C165.521 75.4568 165.308 77.6245 164.492 79.5946C163.676 81.5646 162.294 83.2484 160.521 84.433C158.748 85.6177 156.664 86.25 154.531 86.25C151.672 86.25 148.93 85.1141 146.908 83.0922C144.886 81.0704 143.75 78.3281 143.75 75.4688Z" fill="#9F9F9F"/>
</svg>
