<svg width="32" height="32" viewBox="0 0 32 32" fill="none" xmlns="http://www.w3.org/2000/svg">
<path d="M29.5 8.675C29.3103 8.46212 29.0777 8.29189 28.8174 8.17554C28.5571 8.05918 28.2751 7.99935 27.99 8H22C22 6.4087 21.3679 4.88258 20.2426 3.75736C19.1174 2.63214 17.5913 2 16 2C14.4087 2 12.8826 2.63214 11.7574 3.75736C10.6321 4.88258 10 6.4087 10 8H4.01C3.72658 8.00076 3.4465 8.06127 3.18804 8.17758C2.92958 8.29389 2.69854 8.46338 2.51 8.675C2.32304 8.88583 2.18273 9.1338 2.09829 9.40264C2.01385 9.67148 1.98717 9.95513 2.02 10.235L3.8025 25.235C3.86031 25.7237 4.09629 26.174 4.46528 26.4996C4.83428 26.8253 5.31038 27.0034 5.8025 27H26.2087C26.7009 27.0034 27.177 26.8253 27.546 26.4996C27.915 26.174 28.1509 25.7237 28.2087 25.235L29.9912 10.235C30.0239 9.95504 29.997 9.67134 29.9124 9.40249C29.8277 9.13364 29.6872 8.88573 29.5 8.675ZM16 4C17.0609 4 18.0783 4.42143 18.8284 5.17157C19.5786 5.92172 20 6.93913 20 8H12C12 6.93913 12.4214 5.92172 13.1716 5.17157C13.9217 4.42143 14.9391 4 16 4ZM26.22 25C26.2164 25.0013 26.2124 25.0013 26.2087 25H5.78125L4.01 10H28L26.22 25Z" fill="white"/>
</svg>
